<svg xmlns="http://www.w3.org/2000/svg" viewBox="0 0 32 32" width="32" height="32" shape-rendering="crispEdges"><rect x="9" y="13" width="15" height="15" fill="#263743"/><rect x="10" y="14" width="13" height="13" fill="#826a99"/><rect x="10" y="14" width="4" height="3" fill="#8eb6c6"/><rect x="14" y="15" width="5" height="4" fill="#8eb6c6"/><rect x="15" y="15" width="3" height="10" fill="#dbad58"/><rect x="10" y="22" width="13" height="2" fill="#263743"/><rect x="8" y="25" width="17" height="5" fill="#263743"/><rect x="9" y="25" width="15" height="3" fill="#826a99"/><rect x="11" y="27" width="11" height="2" fill="#8eb6c6"/><rect x="7" y="15" width="4" height="9" fill="#263743"/><rect x="8" y="16" width="3" height="7" fill="#826a99"/><rect x="22" y="15" width="4" height="9" fill="#263743"/><rect x="23" y="16" width="2" height="7" fill="#826a99"/><rect x="7" y="21" width="4" height="3" fill="#b98260"/><rect x="23" y="21" width="3" height="3" fill="#e9b88d"/><rect x="9" y="29" width="8" height="2" fill="#263743"/><rect x="17" y="29" width="8" height="2" fill="#263743"/><rect x="12" y="5" width="9" height="10" fill="#263743"/><rect x="13" y="6" width="7" height="8" fill="#e9b88d"/><rect x="13" y="11" width="7" height="3" fill="#b98260"/><rect x="13" y="10" width="7" height="2" fill="#e9b88d"/><rect x="19" y="9" width="1" height="1" fill="#263743"/><rect x="10" y="3" width="13" height="13" fill="#263743"/><rect x="11" y="4" width="11" height="9" fill="#79543c"/><rect x="13" y="7" width="8" height="7" fill="#e9b88d"/><rect x="10" y="12" width="3" height="7" fill="#79543c"/><rect x="27" y="6" width="2" height="24" fill="#263743"/><rect x="28" y="12" width="1" height="17" fill="#bd8c5a"/><rect x="25" y="3" width="6" height="7" fill="#263743"/><rect x="26" y="4" width="4" height="5" fill="#a1dfc7"/><rect x="25" y="1" width="7" height="3" fill="#b9a1ce"/><rect x="24" y="7" width="3" height="8" fill="#55b6aa"/><rect x="29" y="8" width="3" height="7" fill="#8eb6c6"/></svg>