<svg xmlns="http://www.w3.org/2000/svg" viewBox="0 0 32 32" width="32" height="32" shape-rendering="crispEdges"><rect x="11" y="3" width="12" height="11" fill="#262940"/><rect x="12" y="4" width="10" height="9" fill="#b9afc2"/><rect x="13" y="8" width="8" height="4" fill="#6f8fdb"/><rect x="14" y="9" width="2" height="1" fill="#b8e1f3"/><rect x="19" y="9" width="2" height="1" fill="#b8e1f3"/><rect x="9" y="1" width="5" height="5" fill="#262940"/><rect x="10" y="2" width="3" height="3" fill="#b9afc2"/><rect x="21" y="1" width="5" height="5" fill="#262940"/><rect x="22" y="2" width="3" height="3" fill="#b9afc2"/><rect x="8" y="14" width="17" height="13" fill="#262940"/><rect x="9" y="15" width="15" height="11" fill="#4b4d7d"/><rect x="11" y="16" width="11" height="8" fill="#b9afc2"/><rect x="14" y="18" width="5" height="5" fill="#6f8fdb"/><rect x="16" y="19" width="1" height="3" fill="#b8e1f3"/><rect x="5" y="15" width="5" height="11" fill="#262940"/><rect x="6" y="16" width="3" height="9" fill="#b9afc2"/><rect x="24" y="15" width="5" height="11" fill="#262940"/><rect x="25" y="16" width="3" height="9" fill="#b9afc2"/><rect x="7" y="25" width="8" height="5" fill="#262940"/><rect x="8" y="26" width="6" height="3" fill="#6f8fdb"/><rect x="18" y="25" width="8" height="5" fill="#262940"/><rect x="19" y="26" width="6" height="3" fill="#6f8fdb"/><rect x="3" y="20" width="4" height="9" fill="#6f8fdb"/><rect x="2" y="25" width="3" height="5" fill="#b8e1f3"/><rect x="26" y="20" width="3" height="10" fill="#6f8fdb"/><rect x="28" y="25" width="3" height="5" fill="#b8e1f3"/><rect x="27" y="3" width="3" height="23" fill="#262940"/><rect x="28" y="4" width="1" height="20" fill="#b8e1f3"/><rect x="24" y="1" width="7" height="4" fill="#6f8fdb"/><rect x="25" y="0" width="5" height="2" fill="#b8e1f3"/></svg>