<svg xmlns="http://www.w3.org/2000/svg" viewBox="0 0 32 32" width="32" height="32" shape-rendering="crispEdges"><rect x="2" y="28" width="28" height="2" fill="#263743"/><rect x="4" y="27" width="24" height="2" fill="#bd8c5a"/><rect x="3" y="9" width="26" height="6" fill="#263743"/><rect x="4" y="10" width="24" height="4" fill="#bf6654"/><rect x="5" y="10" width="4" height="4" fill="#fff0ca"/><rect x="11" y="10" width="4" height="4" fill="#fff0ca"/><rect x="17" y="10" width="4" height="4" fill="#fff0ca"/><rect x="23" y="10" width="4" height="4" fill="#fff0ca"/><rect x="5" y="15" width="3" height="13" fill="#8a613f"/><rect x="24" y="15" width="3" height="13" fill="#8a613f"/><rect x="8" y="20" width="16" height="8" fill="#263743"/><rect x="9" y="21" width="14" height="6" fill="#fff0ca"/><rect x="11" y="19" width="10" height="4" fill="#dbad58"/><rect x="12" y="16" width="3" height="4" fill="#dbad58"/><rect x="18" y="16" width="3" height="4" fill="#52866a"/></svg>