<svg xmlns="http://www.w3.org/2000/svg" xmlns:xlink="http://www.w3.org/1999/xlink" width="256" height="256" viewBox="0 0 256 256">
<!-- mage_space: per-ID painted core + zigzag trail + rune mark + rank 3 -->
<g shape-rendering="crispEdges"><circle cx="128" cy="128" r="54" fill="none" stroke="#C8BAE6" stroke-width="3" stroke-dasharray="14 12 7 17" opacity="0.3"/></g>
<g opacity="0.57"><g shape-rendering="crispEdges"><polyline points="31,179 68,145 61,134 112,139 122,119 182,112" fill="none" stroke="#C8BAE6" stroke-width="4" stroke-linecap="square" stroke-linejoin="miter" opacity="0.84"/><polyline points="46,195 83,164 92,171 128,151 160,158" fill="none" stroke="#F2E9FF" stroke-width="2" stroke-linecap="square" stroke-linejoin="miter" opacity="0.75"/></g></g>
<g data-unit="mage_space" data-art-source="per-id" transform="translate(12.80 12.80) scale(0.90)"><image href="../../generated/vfx/units/mage_space-master.png" xlink:href="../../generated/vfx/units/mage_space-master.png" x="0" y="0" width="256" height="256" preserveAspectRatio="xMidYMid meet"/></g>

<g shape-rendering="crispEdges" opacity=".82"><circle cx="190" cy="127" r="13" fill="none" stroke="#C8BAE6" stroke-width="3" stroke-dasharray="14 5 7 6"/><rect x="188" y="121" width="4" height="12" fill="#F2E9FF"/></g>
<g shape-rendering="crispEdges"><rect x="193" y="156" width="5" height="5" fill="#F2E9FF" opacity="0.86"/><rect x="79" y="130" width="3" height="3" fill="#C8BAE6" opacity="0.68"/><rect x="170" y="144" width="3" height="3" fill="#C8BAE6" opacity="0.86"/><rect x="104" y="38" width="3" height="3" fill="#F2E9FF" opacity="0.68"/><rect x="103" y="84" width="5" height="5" fill="#C8BAE6" opacity="0.86"/><rect x="179" y="206" width="3" height="3" fill="#C8BAE6" opacity="0.68"/><rect x="212" y="148" width="3" height="3" fill="#F2E9FF" opacity="0.86"/><rect x="114" y="74" width="3" height="3" fill="#C8BAE6" opacity="0.68"/><rect x="39" y="92" width="5" height="5" fill="#C8BAE6" opacity="0.86"/></g>
</svg>
