<svg xmlns="http://www.w3.org/2000/svg" xmlns:xlink="http://www.w3.org/1999/xlink" width="256" height="256" viewBox="0 0 256 256">
<!-- mage_time: per-ID painted core + spiral trail + rune mark + rank 3 -->
<g shape-rendering="crispEdges"><circle cx="128" cy="128" r="54" fill="none" stroke="#99D5DD" stroke-width="3" stroke-dasharray="14 12 7 17" opacity="0.3"/></g>
<g opacity="0.57"><g shape-rendering="crispEdges"><path d="M39 163 C67 90 165 66 195 122 C216 159 167 196 130 168 C105 151 121 122 147 127" fill="none" stroke="#99D5DD" stroke-width="3" opacity=".76"/><path d="M48 176 C83 99 168 81 184 126" fill="none" stroke="#E3FBFA" stroke-width="2" opacity=".7"/></g></g>
<g data-unit="mage_time" data-art-source="per-id" transform="translate(12.80 12.80) scale(0.90)"><image href="../../generated/vfx/units/mage_time-master.png" xlink:href="../../generated/vfx/units/mage_time-master.png" x="0" y="0" width="256" height="256" preserveAspectRatio="xMidYMid meet"/></g>

<g shape-rendering="crispEdges" opacity=".82"><circle cx="190" cy="127" r="13" fill="none" stroke="#99D5DD" stroke-width="3" stroke-dasharray="14 5 7 6"/><rect x="188" y="121" width="4" height="12" fill="#E3FBFA"/></g>
<g shape-rendering="crispEdges"><rect x="97" y="143" width="5" height="5" fill="#E3FBFA" opacity="0.86"/><rect x="107" y="133" width="3" height="3" fill="#99D5DD" opacity="0.68"/><rect x="29" y="99" width="3" height="3" fill="#99D5DD" opacity="0.86"/><rect x="151" y="49" width="3" height="3" fill="#E3FBFA" opacity="0.68"/><rect x="155" y="215" width="5" height="5" fill="#99D5DD" opacity="0.86"/><rect x="87" y="33" width="3" height="3" fill="#99D5DD" opacity="0.68"/><rect x="81" y="179" width="3" height="3" fill="#E3FBFA" opacity="0.86"/><rect x="136" y="73" width="3" height="3" fill="#99D5DD" opacity="0.68"/><rect x="115" y="183" width="5" height="5" fill="#99D5DD" opacity="0.86"/></g>
</svg>
